<svg width="21" height="25" viewBox="0 0 21 25" fill="none" xmlns="http://www.w3.org/2000/svg">
<path d="M14.8994 8.10166C9.68534 4.64155 12.0449 1.27484 12.0449 1.27484C6.97615 4.19332 5.8541 8.6478 7.09578 14.2798C5.26956 12.7991 5.00503 11.0456 5.06484 8.73305C2.7395 11.2205 2.32137 13.853 2.47497 16.7033C2.62199 19.6328 4.27558 22.2768 6.84518 23.6915C9.41456 25.1057 12.5333 25.0885 15.0875 23.6456C17.6411 22.2027 19.2655 19.5403 19.3798 16.6093C19.5589 12.8846 17.9804 10.1453 14.8997 8.10185L14.8994 8.10166ZM11.486 22.779C10.3214 22.7832 9.1821 22.44 8.21364 21.7933C8.444 21.8159 8.67436 21.8275 8.90471 21.8275C10.9017 21.8185 12.8142 21.0197 14.2243 19.6058C15.6345 18.1915 16.4279 16.2769 16.4312 14.2799C16.4312 14.0495 16.4199 13.8192 16.397 13.5888V13.5885C17.0443 14.5495 17.3916 15.6811 17.3955 16.8397C17.3975 18.4127 16.7749 19.9222 15.6645 21.0358C14.5538 22.1498 13.046 22.7769 11.4731 22.779H11.486Z" fill="black"/>
</svg>
