<svg width="92" height="16" viewBox="0 0 92 16" fill="none" xmlns="http://www.w3.org/2000/svg">
<path fill-rule="evenodd" clip-rule="evenodd" d="M8.79503 0.822028L10.3196 5.05634C10.3664 5.18673 10.482 5.27049 10.6203 5.27491L15.1183 5.41646C15.4811 5.42789 15.7834 5.65465 15.8954 5.99998C16.0075 6.34518 15.8966 6.70634 15.6097 6.92883L12.054 9.68701C11.9446 9.77195 11.9003 9.90766 11.9392 10.0405L13.1945 14.3623C13.2958 14.7108 13.1733 15.0682 12.8797 15.2817C12.5861 15.4951 12.2083 15.5011 11.908 15.2971L8.18602 12.7676C8.07135 12.6898 7.92862 12.6898 7.81419 12.7676L4.09189 15.2969C3.79163 15.501 3.41382 15.4951 3.12019 15.2816C2.82655 15.0682 2.7042 14.7108 2.80538 14.3621L4.06071 10.0404C4.09928 9.9074 4.05525 9.77156 3.9459 9.68688L0.389836 6.92856C0.102953 6.70609 -0.00809426 6.34505 0.10412 5.99971C0.216198 5.65451 0.518407 5.42764 0.881262 5.4162L5.37921 5.27464C5.51765 5.27036 5.63311 5.18646 5.67999 5.05607L7.20452 0.821762C7.32776 0.480451 7.63659 0.263184 7.99971 0.263184C8.36283 0.263184 8.67166 0.480458 8.79464 0.822028H8.79503Z" fill="#E6D649"/>
<path fill-rule="evenodd" clip-rule="evenodd" d="M84.795 0.822028L86.3196 5.05634C86.3664 5.18673 86.482 5.27049 86.6203 5.27491L91.1183 5.41646C91.4811 5.42789 91.7834 5.65465 91.8954 5.99998C92.0075 6.34518 91.8966 6.70634 91.6097 6.92883L88.054 9.68701C87.9446 9.77195 87.9003 9.90766 87.9392 10.0405L89.1945 14.3623C89.2958 14.7108 89.1733 15.0682 88.8797 15.2817C88.5861 15.4951 88.2083 15.5011 87.908 15.2971L84.186 12.7676C84.0713 12.6898 83.9286 12.6898 83.8142 12.7676L80.0919 15.2969C79.7916 15.501 79.4138 15.4951 79.1202 15.2816C78.8266 15.0682 78.7042 14.7108 78.8054 14.3621L80.0607 10.0404C80.0993 9.9074 80.0553 9.77156 79.9459 9.68688L76.3898 6.92856C76.103 6.70609 75.9919 6.34505 76.1041 5.99971C76.2162 5.65451 76.5184 5.42764 76.8813 5.4162L81.3792 5.27464C81.5177 5.27036 81.6331 5.18646 81.68 5.05607L83.2045 0.821762C83.3278 0.480451 83.6366 0.263184 83.9997 0.263184C84.3628 0.263184 84.6717 0.480458 84.7946 0.822028H84.795Z" fill="#A6A2A2"/>
<path fill-rule="evenodd" clip-rule="evenodd" d="M65.795 0.822028L67.3196 5.05634C67.3664 5.18673 67.482 5.27049 67.6203 5.27491L72.1183 5.41646C72.4811 5.42789 72.7834 5.65465 72.8954 5.99998C73.0075 6.34518 72.8966 6.70634 72.6097 6.92883L69.054 9.68701C68.9446 9.77195 68.9003 9.90766 68.9392 10.0405L70.1945 14.3623C70.2958 14.7108 70.1733 15.0682 69.8797 15.2817C69.5861 15.4951 69.2083 15.5011 68.908 15.2971L65.186 12.7676C65.0713 12.6898 64.9286 12.6898 64.8142 12.7676L61.0919 15.2969C60.7916 15.501 60.4138 15.4951 60.1202 15.2816C59.8266 15.0682 59.7042 14.7108 59.8054 14.3621L61.0607 10.0404C61.0993 9.9074 61.0553 9.77156 60.9459 9.68688L57.3898 6.92856C57.103 6.70609 56.9919 6.34505 57.1041 5.99971C57.2162 5.65451 57.5184 5.42764 57.8813 5.4162L62.3792 5.27464C62.5177 5.27036 62.6331 5.18646 62.68 5.05607L64.2045 0.821762C64.3278 0.480451 64.6366 0.263184 64.9997 0.263184C65.3628 0.263184 65.6717 0.480458 65.7946 0.822028H65.795Z" fill="#E6D649"/>
<path fill-rule="evenodd" clip-rule="evenodd" d="M46.795 0.822028L48.3196 5.05634C48.3664 5.18673 48.482 5.27049 48.6203 5.27491L53.1183 5.41646C53.4811 5.42789 53.7834 5.65465 53.8954 5.99998C54.0075 6.34518 53.8966 6.70634 53.6097 6.92883L50.054 9.68701C49.9446 9.77195 49.9003 9.90766 49.9392 10.0405L51.1945 14.3623C51.2958 14.7108 51.1733 15.0682 50.8797 15.2817C50.5861 15.4951 50.2083 15.5011 49.908 15.2971L46.186 12.7676C46.0713 12.6898 45.9286 12.6898 45.8142 12.7676L42.0919 15.2969C41.7916 15.501 41.4138 15.4951 41.1202 15.2816C40.8266 15.0682 40.7042 14.7108 40.8054 14.3621L42.0607 10.0404C42.0993 9.9074 42.0553 9.77156 41.9459 9.68688L38.3898 6.92856C38.103 6.70609 37.9919 6.34505 38.1041 5.99971C38.2162 5.65451 38.5184 5.42764 38.8813 5.4162L43.3792 5.27464C43.5177 5.27036 43.6331 5.18646 43.68 5.05607L45.2045 0.821762C45.3278 0.480451 45.6366 0.263184 45.9997 0.263184C46.3628 0.263184 46.6717 0.480458 46.7946 0.822028H46.795Z" fill="#E6D649"/>
<path fill-rule="evenodd" clip-rule="evenodd" d="M27.795 0.822028L29.3196 5.05634C29.3664 5.18673 29.482 5.27049 29.6203 5.27491L34.1183 5.41646C34.4811 5.42789 34.7834 5.65465 34.8954 5.99998C35.0075 6.34518 34.8966 6.70634 34.6097 6.92883L31.054 9.68701C30.9446 9.77195 30.9003 9.90766 30.9392 10.0405L32.1945 14.3623C32.2958 14.7108 32.1733 15.0682 31.8797 15.2817C31.5861 15.4951 31.2083 15.5011 30.908 15.2971L27.186 12.7676C27.0713 12.6898 26.9286 12.6898 26.8142 12.7676L23.0919 15.2969C22.7916 15.501 22.4138 15.4951 22.1202 15.2816C21.8266 15.0682 21.7042 14.7108 21.8054 14.3621L23.0607 10.0404C23.0993 9.9074 23.0553 9.77156 22.9459 9.68688L19.3898 6.92856C19.103 6.70609 18.9919 6.34505 19.1041 5.99971C19.2162 5.65451 19.5184 5.42764 19.8813 5.4162L24.3792 5.27464C24.5177 5.27036 24.6331 5.18646 24.68 5.05607L26.2045 0.821762C26.3278 0.480451 26.6366 0.263184 26.9997 0.263184C27.3628 0.263184 27.6717 0.480458 27.7946 0.822028H27.795Z" fill="#E6D649"/>
</svg>
