<svg width="19" height="18" viewBox="0 0 19 18" fill="none" xmlns="http://www.w3.org/2000/svg">
<path d="M17.6341 7.85128H17.6517C17.9544 7.85128 18.2279 7.97985 18.4232 8.18743C18.625 8.38899 18.75 8.67022 18.75 8.98159V9.00034V8.99967V9.01775C18.75 9.32912 18.625 9.61036 18.4232 9.81125C18.2272 10.0188 17.9538 10.1474 17.6511 10.1474H17.6328H17.6335H17.5026L16.4994 16.0862C16.4569 16.3531 16.321 16.5949 16.1172 16.7659L16.1153 16.7672C15.9265 16.9339 15.6791 17.0357 15.4089 17.0357H4.23264C3.96247 17.0357 3.71507 16.9339 3.52497 16.7659L3.52628 16.7672C3.32318 16.5975 3.1871 16.3576 3.14347 16.0922L3.14282 16.0855L2.13958 10.1467H1.99114C1.68841 10.1467 1.41498 10.0182 1.21967 9.81058C1.11612 9.70757 1.03382 9.58416 0.977665 9.44771C0.921513 9.31127 0.892669 9.16458 0.892854 9.01641V8.99766V8.98025C0.892854 8.66888 1.01785 8.38765 1.21967 8.18676C1.41563 7.97918 1.68907 7.85061 1.99179 7.85061H2.01002H2.00937L17.6341 7.85128ZM5.11935 15.0255C5.1924 15.0204 5.26365 14.9999 5.3287 14.9654C5.39376 14.9308 5.45124 14.8829 5.4976 14.8247L5.49825 14.824C5.54771 14.7675 5.58527 14.7011 5.60858 14.629C5.63188 14.5568 5.64042 14.4805 5.63366 14.4048V14.4068L5.35437 10.6757C5.34939 10.6006 5.32949 10.5273 5.29589 10.4604C5.2623 10.3935 5.21573 10.3344 5.15906 10.2867L5.15841 10.286C5.10349 10.2351 5.03894 10.1965 4.9688 10.1725C4.89866 10.1486 4.82446 10.1398 4.75087 10.1467H4.75282C4.67977 10.1518 4.60852 10.1723 4.54347 10.2069C4.47841 10.2414 4.42093 10.2893 4.37457 10.3476L4.37392 10.3483C4.32446 10.4048 4.2869 10.4712 4.26359 10.5433C4.24029 10.6154 4.23175 10.6918 4.2385 10.7675V10.7654L4.5178 14.4965C4.52709 14.6412 4.59113 14.7763 4.69618 14.8729L4.69683 14.8735C4.79734 14.9717 4.93065 15.0263 5.06922 15.0262H5.07638H5.07573L5.11935 15.0255ZM8.70328 14.4523V10.7213V10.7159C8.70349 10.6415 8.68893 10.5679 8.6605 10.4995C8.63206 10.4311 8.59035 10.3694 8.53792 10.3181C8.48794 10.2643 8.42782 10.2214 8.36123 10.1922C8.29464 10.1629 8.22296 10.1479 8.15055 10.1481H8.14014C8.06782 10.1478 7.99621 10.1628 7.92972 10.1921C7.86322 10.2213 7.80323 10.2642 7.75342 10.3181C7.70103 10.3695 7.65935 10.4314 7.63093 10.4999C7.6025 10.5684 7.58791 10.6421 7.58806 10.7166V14.4584C7.58806 14.6151 7.65121 14.7564 7.75342 14.8561C7.8034 14.91 7.86351 14.9529 7.93011 14.9821C7.9967 15.0114 8.06838 15.0264 8.14079 15.0262H8.1512C8.22352 15.0264 8.29512 15.0115 8.36162 14.9822C8.42812 14.953 8.48811 14.9101 8.53792 14.8561C8.59102 14.8047 8.63332 14.7427 8.66221 14.6738C8.6911 14.6049 8.70596 14.5307 8.70588 14.4557V14.4517L8.70328 14.4523ZM12.0515 14.4523V10.7213V10.7159C12.0517 10.6415 12.0372 10.5679 12.0088 10.4995C11.9803 10.4311 11.9386 10.3694 11.8862 10.3181C11.8362 10.2643 11.7761 10.2214 11.7095 10.1922C11.6429 10.1629 11.5712 10.1479 11.4988 10.1481H11.4884C11.4161 10.1478 11.3445 10.1628 11.278 10.1921C11.2115 10.2213 11.1515 10.2642 11.1017 10.3181C11.0493 10.3695 11.0076 10.4314 10.9792 10.4999C10.9508 10.5684 10.9362 10.6421 10.9363 10.7166V14.4584C10.9363 14.6151 10.9995 14.7564 11.1017 14.8561C11.1517 14.91 11.2118 14.9529 11.2784 14.9821C11.345 15.0114 11.4166 15.0264 11.489 15.0262H11.4995C11.5718 15.0264 11.6434 15.0115 11.7099 14.9822C11.7764 14.953 11.8364 14.9101 11.8862 14.8561C11.9393 14.8047 11.9816 14.7427 12.0105 14.6738C12.0394 14.6049 12.0542 14.5307 12.0541 14.4557V14.4517L12.0515 14.4523ZM15.1205 14.4965L15.3998 10.7654C15.4061 10.69 15.3973 10.614 15.374 10.5421C15.3508 10.4703 15.3134 10.4041 15.2644 10.3476L15.265 10.3483C15.2188 10.2899 15.1614 10.2419 15.0965 10.2071C15.0316 10.1723 14.9604 10.1516 14.8874 10.1461H14.8855C14.8121 10.1396 14.7382 10.1486 14.6684 10.1725C14.5985 10.1965 14.5341 10.2349 14.4792 10.2853L14.4799 10.2847C14.4231 10.3322 14.3764 10.3912 14.3426 10.458C14.3088 10.5248 14.2886 10.5979 14.2833 10.673V10.675L14.004 14.4061C13.9977 14.4816 14.0064 14.5576 14.0297 14.6294C14.053 14.7013 14.0903 14.7675 14.1394 14.824L14.1387 14.8233C14.185 14.8817 14.2423 14.9297 14.3073 14.9645C14.3722 14.9993 14.4433 15.02 14.5163 15.0255H14.5684C14.7072 15.0255 14.8406 14.9709 14.9415 14.8729C15.0479 14.7764 15.1131 14.6407 15.1231 14.4952V14.4932L15.1205 14.4965ZM5.04383 3.58182L4.2333 7.27675H3.08227L3.96247 3.32201C4.06859 2.79636 4.34658 2.35107 4.73199 2.0397L4.73654 2.03635C5.1244 1.71284 5.6089 1.53688 6.10827 1.53816H6.13301H6.1317H7.58741V1.5328C7.58741 1.37611 7.65056 1.23482 7.75277 1.13505C7.80279 1.08099 7.86299 1.03797 7.9297 1.00861C7.99641 0.979257 8.06823 0.964178 8.14079 0.964295H11.5014C11.6538 0.964295 11.7911 1.02925 11.8881 1.13438C11.9405 1.18578 11.9822 1.24761 12.0106 1.31611C12.039 1.3846 12.0536 1.45832 12.0535 1.5328V1.53816H13.5333C14.0548 1.53816 14.5333 1.72565 14.9083 2.03903L14.9044 2.03568C15.2993 2.35269 15.5725 2.80309 15.6758 3.30728L15.6784 3.32134L16.5586 7.27608H15.4076L14.5971 3.58115C14.5381 3.32759 14.3995 3.10114 14.2025 2.93698L14.2006 2.93497C14.009 2.77222 13.7681 2.6834 13.5196 2.68387H12.0515V2.68922C12.0517 2.76361 12.0372 2.83725 12.0088 2.90565C11.9803 2.97404 11.9386 3.03574 11.8862 3.08697C11.8362 3.14086 11.7761 3.18373 11.7095 3.21297C11.6429 3.24221 11.5712 3.25721 11.4988 3.25706H8.14079C8.06847 3.25727 7.99686 3.2423 7.93037 3.21305C7.86387 3.18381 7.80388 3.14091 7.75407 3.08697C7.70168 3.03557 7.66 2.97374 7.63158 2.90525C7.60315 2.83675 7.58856 2.76303 7.58871 2.68855V2.6832H6.12064C5.87154 2.68291 5.63019 2.77221 5.43835 2.93564L5.44031 2.9343C5.24482 3.09714 5.10687 3.32163 5.04774 3.57311L5.04643 3.58115L5.04383 3.58182Z" fill="white"/>
</svg>
