<svg width="26" height="14" viewBox="0 0 26 14" fill="none" xmlns="http://www.w3.org/2000/svg">
<g clip-path="url(#clip0_0_125)">
<path d="M4.71453 12.2039L12.1812 13.7677C12.2422 13.7677 12.303 13.7677 12.3336 13.8002C12.7603 13.8002 13.0955 13.4418 13.1259 12.9857C13.1259 12.5295 12.7907 12.1711 12.364 12.1386L4.71452 12.1388C4.68391 12.1388 4.65351 12.2038 4.71452 12.2038L4.71453 12.2039ZM12.7298 12.7577C12.8212 12.9859 12.7602 13.2464 12.5469 13.3768C12.3335 13.4746 12.0899 13.4093 11.9678 13.1814C11.8764 12.9532 11.9374 12.6927 12.1507 12.5623C12.3945 12.432 12.6383 12.5298 12.7298 12.7577Z" fill="black"/>
<path d="M11.145 3.60228C11.1754 3.73251 11.3278 3.83046 11.4499 3.83046C11.7241 3.79796 12.029 3.79796 12.3032 3.79796C12.7603 3.79796 13.1869 3.83046 13.6136 3.89569C13.7964 3.92819 13.9792 3.76546 13.9792 3.56978V1.32158C13.9792 1.12612 13.8268 0.995667 13.6744 0.995667C12.699 1.02817 11.7239 1.22385 10.8402 1.51703C10.6878 1.58226 10.5964 1.74521 10.6574 1.94066L11.145 3.60228Z" fill="black"/>
<path d="M14.4364 4.05844C15.0765 4.22139 15.7164 4.48207 16.3259 4.77524C16.4783 4.87297 16.6915 4.77524 16.7526 4.57978L17.5755 1.90795C17.6365 1.74499 17.5451 1.54954 17.3926 1.48431C16.4783 1.19113 15.5336 0.995679 14.5584 0.962952C14.3756 0.962952 14.2536 1.09318 14.2536 1.28886V3.73251C14.1928 3.89546 14.2842 4.02592 14.4364 4.05842L14.4364 4.05844Z" fill="black"/>
<path d="M23.2441 6.73012L20.6841 8.71761C20.5623 8.81534 20.5317 8.97829 20.5927 9.14124C20.867 9.6626 21.0804 10.184 21.2632 10.7378C21.3242 10.9008 21.4766 10.9985 21.6288 10.9333L24.6154 9.89053C24.7679 9.8253 24.8593 9.66235 24.7983 9.4669C24.4934 8.52214 24.0974 7.60962 23.6401 6.79507C23.6099 6.66484 23.3965 6.63234 23.2441 6.73007L23.2441 6.73012Z" fill="black"/>
<path d="M8.46312 4.74264C9.16401 4.38423 9.89549 4.09106 10.6574 3.92809C10.8402 3.89559 10.9622 3.69991 10.9012 3.50445L10.4442 1.9731C10.3832 1.81015 10.2003 1.71242 10.0479 1.77765C9.16422 2.16856 8.31068 2.65742 7.54878 3.27653C7.42697 3.37426 7.39636 3.56972 7.48777 3.73267L8.09723 4.64496C8.15824 4.77519 8.31067 4.80792 8.46309 4.74269L8.46312 4.74264Z" fill="black"/>
<path d="M17.7584 2.00574L16.905 4.80776C16.8746 4.93799 16.905 5.10094 17.0268 5.16617C17.5449 5.49208 18.063 5.88297 18.5202 6.33911C18.642 6.46934 18.8555 6.43684 18.9773 6.30661L20.7145 3.73278C20.8059 3.60255 20.7755 3.37437 20.6535 3.27665C19.8916 2.65754 19.0383 2.16893 18.1544 1.77778C18.0022 1.74505 17.8191 1.84278 17.7583 2.00573L17.7584 2.00574Z" fill="black"/>
<path d="M19.1298 6.95823C19.526 7.41437 19.8917 7.87052 20.1965 8.39189C20.2879 8.55484 20.4708 8.58735 20.6232 8.48962L23.1527 6.53459C23.2745 6.43687 23.3051 6.24141 23.2137 6.07846C22.6653 5.26392 22.0252 4.5146 21.3243 3.86302C21.2024 3.73279 20.989 3.76529 20.8672 3.92825L19.0692 6.56731C19.0077 6.69754 19.0077 6.86049 19.1298 6.95822L19.1298 6.95823Z" fill="black"/>
<path d="M5.87264 6.82791C6.4211 6.17633 7.06121 5.62244 7.7621 5.16629C7.91453 5.06856 7.94493 4.84037 7.85352 4.71015L7.30505 3.92813C7.21364 3.76517 7.0002 3.73267 6.848 3.8629C6.1471 4.51448 5.50699 5.26381 4.95853 6.07836C4.86712 6.20859 4.89752 6.43677 5.01954 6.53449L5.4462 6.86041C5.59841 6.95813 5.75084 6.92563 5.87264 6.82791L5.87264 6.82791Z" fill="black"/>
<path d="M3.52597 9.89056L3.6784 9.95579C3.83082 10.021 3.98325 9.92329 4.04405 9.76034C4.3793 8.91327 4.80596 8.13125 5.32406 7.44692C5.44587 7.31669 5.41547 7.08851 5.26305 6.99078L4.92779 6.7301C4.77537 6.63237 4.59254 6.66487 4.50113 6.82783C4.01346 7.64237 3.61743 8.55466 3.34297 9.49965C3.28217 9.66237 3.37359 9.85782 3.52601 9.89056L3.52597 9.89056Z" fill="black"/>
<path d="M21.5374 11.5523C21.6592 12.1061 21.7508 12.6927 21.8116 13.2791C21.8116 13.4421 21.9641 13.5723 22.1165 13.5723H25.2251C25.4079 13.5723 25.53 13.4093 25.53 13.2464C25.4996 12.2364 25.3775 11.2914 25.1337 10.3466C25.1033 10.1511 24.9203 10.0534 24.7374 10.1184L21.7508 11.1611C21.568 11.2264 21.4766 11.3893 21.5374 11.5523V11.5523Z" fill="black"/>
<path d="M3.61739 13.5723C3.76981 13.5723 3.92223 13.4421 3.92223 13.2791C3.95263 12.3994 4.19647 11.65 4.47069 10.803C4.5317 10.64 4.44029 10.4446 4.28787 10.3793L2.79449 9.85797C2.64207 9.79274 2.45924 9.89047 2.39824 10.0861C2.1848 11.0309 2.06299 12.1714 2.06299 13.2466C2.06299 13.4748 2.1848 13.5725 2.36784 13.5725L3.61739 13.5723Z" fill="black"/>
</g>
<defs>
<clipPath id="clip0_0_125">
<rect width="25" height="14" fill="white" transform="translate(0.884064)"/>
</clipPath>
</defs>
</svg>
