<svg width="24" height="30" viewBox="0 0 24 30" fill="none" xmlns="http://www.w3.org/2000/svg">
<path d="M0.000106021 10.7613C0.000106021 9.4643 0.226835 8.23896 0.673626 7.09531C1.1005 5.9845 1.73472 4.965 2.54248 4.09114C3.3486 3.22875 4.27107 2.48303 5.28324 1.87553C6.32172 1.24727 7.446 0.773299 8.62083 0.46847C9.80985 0.156252 11.0342 -0.00120263 12.2635 6.91575e-06C14.1624 6.91575e-06 15.9295 0.401785 17.5683 1.20201C19.1857 1.98764 20.5624 3.1933 21.5544 4.69298C22.578 6.2184 23.0865 7.94388 23.0865 9.86774C23.0865 11.0214 22.9731 12.15 22.7414 13.2537C22.5139 14.3567 22.1522 15.4277 21.6645 16.4429C21.1995 17.4256 20.5917 18.334 19.8606 19.1387C19.1259 19.9305 18.2361 20.5626 17.2466 20.9958C16.1723 21.4666 15.0101 21.7036 13.8373 21.691C13.0221 21.691 12.2085 21.4993 11.4049 21.1142C10.6014 20.7308 10.0246 20.2039 9.67779 19.5288C9.55609 19.9972 9.38938 20.6741 9.16765 21.5593C8.95426 22.4429 8.81088 23.0131 8.74753 23.2715C8.68085 23.5282 8.55748 23.9567 8.37743 24.5502C8.25533 24.9892 8.09868 25.4179 7.90897 25.8322L7.33548 26.9558C7.08746 27.438 6.8102 27.9045 6.50524 28.3529C6.20349 28.7897 5.83006 29.3115 5.38493 29.9116L5.13653 30L4.97149 29.8199C4.7931 27.9311 4.70141 26.8008 4.70141 26.4273C4.70141 25.322 4.83311 24.0817 5.09319 22.7046C5.34826 21.3293 5.7517 19.6004 6.29352 17.5215C6.83534 15.4443 7.14542 14.2223 7.22878 13.8605C6.84701 13.082 6.65362 12.065 6.65362 10.8147C6.65362 9.81606 6.96537 8.8808 7.59055 8.00056C8.21739 7.12365 9.00927 6.6852 9.96954 6.6852C10.7047 6.6852 11.2749 6.9286 11.6833 7.41707C12.0935 7.90387 12.2935 8.51737 12.2935 9.26591C12.2935 10.0595 12.0301 11.2081 11.5 12.7102C10.9698 14.214 10.7064 15.3359 10.7064 16.0811C10.7064 16.8363 10.9765 17.4682 11.5166 17.9633C12.0497 18.4587 12.7546 18.7272 13.4822 18.7119C14.1424 18.7119 14.7542 18.5618 15.3227 18.2601C15.8823 17.9672 16.3667 17.549 16.7381 17.0381C17.547 15.9283 18.1237 14.6666 18.4336 13.3287C18.5936 12.6252 18.717 11.9567 18.7937 11.3281C18.8753 10.6963 18.9104 10.0995 18.9104 9.53265C18.9104 7.45374 18.2502 5.83329 16.9381 4.67297C15.6194 3.51265 13.9023 2.93582 11.79 2.93582C9.38771 2.93582 7.37882 3.7127 5.77004 5.27147C4.15959 6.82523 3.34937 8.80078 3.34937 11.1964C3.34937 11.7249 3.42939 12.2351 3.5811 12.7285C3.72947 13.2203 3.89119 13.6121 4.06623 13.9022C4.23962 14.1873 4.40299 14.4657 4.55137 14.7224C4.70141 14.9792 4.77977 15.1625 4.77977 15.2726C4.77977 15.6093 4.69141 16.0478 4.51303 16.5896C4.32797 17.1314 4.10958 17.4015 3.84617 17.4015C3.82117 17.4015 3.7178 17.3832 3.53775 17.3448C2.91419 17.1587 2.35105 16.8107 1.90563 16.3362C1.4329 15.8445 1.05982 15.2659 0.806996 14.6324C0.554889 14.0011 0.35853 13.349 0.220167 12.6835C0.0706783 12.0538 -0.00319677 11.4085 0.000106021 10.7613V10.7613Z" fill="black"/>
</svg>
