<svg width="52" height="52" viewBox="0 0 52 52" fill="none" xmlns="http://www.w3.org/2000/svg">
<path d="M18.9388 18.5176V18.5179V34.4618V34.4621C18.939 34.8466 19.0451 35.2235 19.2453 35.5517C19.4456 35.8799 19.7322 36.1466 20.074 36.3227C20.4157 36.4987 20.7994 36.5773 21.1828 36.5499C21.5663 36.5224 21.9348 36.3899 22.2479 36.167L22.2486 36.1665L33.4091 28.1947C33.6806 28.001 33.9019 27.7452 34.0546 27.4487C34.2073 27.1521 34.2869 26.8234 34.2869 26.4899C34.2869 26.1563 34.2073 25.8276 34.0546 25.5311C33.9019 25.2346 33.6806 24.9788 33.4091 24.785L22.2486 16.8132L21.9579 17.2201L22.2479 16.8128C21.9348 16.5898 21.5663 16.4574 21.1828 16.4299C20.7994 16.4024 20.4157 16.481 20.074 16.6571C19.7322 16.8332 19.4456 17.0999 19.2453 17.4281C19.0451 17.7562 18.939 18.1332 18.9388 18.5176ZM50.8266 26.4899C50.8266 33.123 48.1916 39.4844 43.5012 44.1748C38.8109 48.8651 32.4495 51.5001 25.8164 51.5001C19.1832 51.5001 12.8218 48.8651 8.13147 44.1748C3.44115 39.4844 0.806152 33.123 0.806152 26.4899C0.806152 19.8568 3.44115 13.4953 8.13147 8.80499C12.8218 4.11467 19.1832 1.47968 25.8164 1.47968C32.4495 1.47968 38.8109 4.11467 43.5012 8.80499C48.1916 13.4953 50.8266 19.8568 50.8266 26.4899Z" fill="white" fill-opacity="0.85" stroke="white"/>
</svg>
