<svg width="28" height="28" viewBox="0 0 28 28" fill="none" xmlns="http://www.w3.org/2000/svg">
<path d="M17.267 11.0228C17.267 12.8253 15.8049 14.2866 14.0014 14.2866C12.1979 14.2866 10.736 12.8253 10.736 11.0228C10.736 9.22045 12.1979 7.75909 14.0014 7.75909C15.8049 7.75909 17.267 9.2204 17.267 11.0228Z" fill="white"/>
<path d="M14.0015 18.1174C11.9855 18.1197 10.0447 18.8825 8.56702 20.2535C7.08947 21.6242 6.18422 23.5021 6.03207 25.5111C8.37267 27.1317 11.1521 28 13.9996 28C16.8471 28 19.6266 27.1317 21.9671 25.5111C21.8149 23.5024 20.9102 21.6253 19.4335 20.2545C17.9569 18.8837 16.0171 18.1203 14.0015 18.117L14.0015 18.1174Z" fill="white"/>
<path d="M14.0015 0.000799562C11.1392 1.87398e-05 8.34552 0.876319 5.99652 2.51172C3.64767 4.14698 1.85707 6.46266 0.866024 9.14659C-0.125025 11.8305 -0.269325 14.7535 0.45294 17.5215C1.17539 20.2899 2.72949 22.7701 4.90604 24.6281C5.25975 22.4732 6.36814 20.5142 8.03359 19.1006C9.69884 17.6872 11.8127 16.911 13.9976 16.911C16.1823 16.911 18.2962 17.6872 19.9616 19.1006C21.6268 20.5143 22.7352 22.4734 23.0891 24.6281C25.2649 22.7705 26.819 20.2908 27.5415 17.523C28.2641 14.7556 28.1206 11.8331 27.1305 9.14958C26.1403 6.46611 24.3508 4.15032 22.0035 2.51422C19.6561 0.878418 16.8635 0.000949479 14.0015 0L14.0015 0.000799562ZM14.0015 15.5013C12.8129 15.5025 11.6726 15.0314 10.8314 14.1921C9.99022 13.3525 9.51737 12.2135 9.51657 11.0255C9.51579 9.83746 9.98747 8.69783 10.8275 7.85744C11.6678 7.0171 12.8076 6.54466 13.9963 6.54431C15.1849 6.54392 16.325 7.01554 17.1656 7.85549C18.0063 8.69545 18.4785 9.83486 18.4785 11.0227C18.4775 12.2096 18.0057 13.3474 17.1664 14.187C16.3272 15.0266 15.1891 15.4992 14.0016 15.5013H14.0015Z" fill="white"/>
</svg>
