<svg width="30" height="36" viewBox="0 0 30 36" fill="none" xmlns="http://www.w3.org/2000/svg">
<path d="M15 16.5696C19.5786 16.5696 23.2849 12.8631 23.2849 8.28482C23.2849 3.70629 19.5783 0 15 0C10.4215 0 6.71521 3.70652 6.71521 8.28482C6.71521 12.8631 10.4214 16.5696 15 16.5696ZM15 2.61626C18.1395 2.61626 20.6687 5.14531 20.6687 8.2849C20.6687 11.4244 18.1396 13.9535 15 13.9535C11.8604 13.9535 9.33139 11.4245 9.33139 8.2849C9.33139 5.14539 11.8604 2.61626 15 2.61626V2.61626Z" fill="white"/>
<path d="M1.30829 35.4067H28.6918C29.433 35.4067 30 34.8397 30 34.0985V29.3019C30 22.8047 24.7237 17.5287 18.2268 17.5287L11.7732 17.529C5.27604 17.529 0 22.8053 0 29.3022V34.0988C0 34.8397 0.566949 35.4067 1.30821 35.4067L1.30829 35.4067ZM2.61649 29.3457C2.61649 24.2875 6.71538 20.1888 11.7734 20.1888H18.2268C23.2849 20.1888 27.3837 24.2877 27.3837 29.3457V32.8341H2.61641L2.61649 29.3457Z" fill="white"/>
</svg>
