<svg width="27" height="30" viewBox="0 0 27 30" fill="none" xmlns="http://www.w3.org/2000/svg">
<path d="M24.5935 7.03704C23.0978 6.70813 21.7448 5.91386 20.7285 4.76822C19.7122 3.62257 19.085 2.18444 18.9369 0.660191V0H13.7604V20.5109C13.7614 21.421 13.4761 22.3084 12.9448 23.0473C12.4135 23.7863 11.6632 24.3393 10.8001 24.6281C9.93704 24.9169 9.00498 24.9268 8.13596 24.6564C7.26694 24.3861 6.50501 23.8491 5.95811 23.1217C5.46814 22.4778 5.16812 21.7096 5.09196 20.904C5.0158 20.0985 5.16655 19.2877 5.52716 18.5634C5.88777 17.839 6.44385 17.23 7.13252 16.8052C7.82119 16.3805 8.61498 16.1568 9.42411 16.1597C9.8716 16.1571 10.3169 16.2229 10.7445 16.3547V11.1032C10.2469 11.0416 9.74537 11.0165 9.24406 11.0282C7.39749 11.0775 5.60539 11.6643 4.0872 12.7166C2.56901 13.7689 1.39063 15.2411 0.696355 16.9529C0.0020837 18.6647 -0.177944 20.5418 0.178316 22.3543C0.534577 24.1669 1.41166 25.8362 2.70217 27.1579C4.02478 28.5026 5.71728 29.4237 7.56462 29.8043C9.41195 30.1849 11.3307 30.0078 13.0772 29.2954C14.8236 28.583 16.3188 27.3675 17.3729 25.8033C18.4269 24.2392 18.9922 22.3971 18.9969 20.5109V10.0079C21.0847 11.4992 23.5882 12.297 26.154 12.2886V7.18708C25.65 7.18916 25.1471 7.13887 24.6535 7.03704H24.5935Z" fill="black"/>
</svg>
